# xmcd
#
# Track frame offsets:
#	150
#	17505
#	33265
#	51393
#	67712
#	83509
#	99452
#	120335
#	137208
#	158556
#	173179
#	188100
#	203821
#	222933
#	236474
#	249750
#	266998
#
# Disc length: 3799 seconds
#
# Revision: 1
# Processed by: cddbd v1.5.2PL0 Copyright (c) Steve Scherf et al.
# Submitted via: audiograbber 1.83.01
#
DISCID=d80ed511
DTITLE=Various Artist - CDX 414
DYEAR=2007
DGENRE=Country
TTITLE0=Luke Bryan - All my friends say
TTITLE1=Laura Bryna - I don't have a thing to wear
TTITLE2=Tim McGraw - Last Dollar (Fly away)
TTITLE3=Kacey Jones - Lie to me darlin'
TTITLE4=Sugarland - Settlin'
TTITLE5=Rascal Flatts - Stand
TTITLE6=Carrie Underwood - Wasted (radio edit)
TTITLE7=Mike Manuel - Back in the country again
TTITLE8=Lindsay Mitchel - Black Tar Mary
TTITLE9=Dennie Hall - Different just the same
TTITLE10=Katie Mission - Give me a little something
TTITLE11=Mollye Rees - Savannah to San Anton
TTITLE12=Bobby Chitwood - Live for the moment
TTITLE13=K. Wilder - Hurricane
TTITLE14=Zachary Hunter - Something big (the GeorgeStrait song)
TTITLE15=Mollie Castle - Walking on a cloud
TTITLE16=Travis Rush - You gotta leave
EXTD=
EXTT0=
EXTT1=
EXTT2=
EXTT3=
EXTT4=
EXTT5=
EXTT6=
EXTT7=
EXTT8=
EXTT9=
EXTT10=
EXTT11=
EXTT12=
EXTT13=
EXTT14=
EXTT15=
EXTT16=
PLAYORDER=
